<svg xmlns="http://www.w3.org/2000/svg" xmlns:xlink="http://www.w3.org/1999/xlink" id="Layer_1" x="0px" y="0px" viewBox="0 0 840 258" xml:space="preserve">
<g id="_x31_">
</g>
<g id="_x32_">
</g>
<g id="_x33_">
</g>
<g id="_x34_">
	<g>
		<path fill="#2C3E99" d="M396.2,162.9l-8.7-1.7c-2.9-0.4-4.8,0.8-5.4,3.7c-4.8,20.6-18.8,32.4-38,32.4c-13.4,0-24-5.2-31.8-15.8    s-11.7-24.9-11.7-43c0-17.9,3.9-32.2,11.5-42.8c7.9-10.6,18.4-16,31.6-16c18.4,0,32.2,11,37,31.8c0.6,3.1,2.5,4.4,5.4,4l9.1-1.7    c3.1-0.6,4.4-2.5,3.9-5.4c-5.6-28.9-25.9-45.1-54.8-45.1c-19.2,0-34.3,6.9-45.5,20.4c-10.9,13.5-16.5,31.6-16.5,54.7    s5.6,41.6,16.7,55.1c11.1,13.5,26.3,20.4,45.5,20.4c28.4,0,49.7-15.8,55.6-45.5C400.8,165.2,399.6,163.3,396.2,162.9z"></path>
		<path fill="#2C3E99" d="M437,59.9h-7.5c-3.1,0-4.8,1.5-4.8,4.6V207c0,3.1,1.7,4.6,4.8,4.6h7.5c3.1,0,4.8-1.5,4.8-4.6V64.4    C441.7,61.3,440.1,59.9,437,59.9z"></path>
		<path fill="#2C3E99" d="M485,107.6h-7.5c-3.1,0-4.8,1.5-4.8,4.6V207c0,3.1,1.7,4.6,4.8,4.6h7.5c3.1,0,4.8-1.5,4.8-4.6v-94.8    C489.6,109.1,488,107.6,485,107.6z"></path>
		<path fill="#2C3E99" d="M481.2,63.6c-6.4,0-11.3,5-11.3,11.4s5,11.4,11.3,11.4c6,0,11.1-5,11.1-11.4S487.6,63.6,481.2,63.6z"></path>
		<path fill="#2C3E99" d="M566.7,104.7c-14,0-24.2,5.2-30.3,15.8v-8.3c0-3.1-1.7-4.6-4.8-4.6h-6.2c-3.1,0-4.8,1.5-4.8,4.6V207    c0,3.1,1.7,4.6,4.8,4.6h7.5c3.1,0,4.8-1.5,4.8-4.6v-56.5c0-18.1,10-29.7,25.5-29.7c14.9,0,24.6,10.4,24.6,26.4V207    c0,3.1,1.7,4.6,4.8,4.6h7.7c3.1,0,4.6-1.5,4.6-4.6v-61.1C604.7,120.9,589.3,104.7,566.7,104.7z"></path>
		<path fill="#2C3E99" d="M758.3,175l-7.9-1.2c-2.7-0.2-4.6,1-5.4,3.7c-3.3,12.7-12.2,20.2-24.6,20.2c-18.2,0-29.4-14.5-29.4-38.4    c0-23.9,11.3-38.6,29-38.6c12.4,0,20.9,7.3,24.4,18.9c1,2.9,2.7,4.2,5.4,3.7l8.1-1.5c3.3-0.4,4.6-2.3,3.7-5.4    c-4.8-19.3-20.9-31.6-42.2-31.6c-14,0-25.3,5-33.5,14.8s-12.4,22.9-12.4,39.7c0,33.5,17.6,54.2,46.3,54.2c22.1,0,38-12.3,42.4-33    C762.8,177.1,761.6,175.2,758.3,175z"></path>
		<g>
			<path fill="#00AEEF" d="M641,86.4c6,0,11.1-5,11.1-11.4s-4.8-11.4-11.1-11.4s-11.3,5-11.3,11.4C629.6,81.5,634.6,86.4,641,86.4z"></path>
			<path fill="#00AEEF" d="M676.7,128.9c0.9-4.2-0.4-7.7-2.5-10.4c-2.1-2.6-3.5-4.9-5.8-5.9c-3.3-1.5-8.6-1.6-12-0.2     c-0.9,0.4-1.8,1-2.3,1.8c-0.3,0.6-0.5,1.1-0.6,1.7c-0.2,2.7,2.9,4.9,5.2,5.8l4.9,1.9c1.2,0.5,4.2,1.1,4.4,2.8     c0.1,1.1-1.4,1.7-2.1,2.2c-1.4,1-3.1,1.9-4.8,2.8c-3.5,1.7-7.3,3.3-10.9,4.8c-0.5,0.2-1.1,0.4-1.6,0.7l1-24.5     c0-3.1-1.7-4.6-4.8-4.6h-7.5c-3.1,0-4.8,1.5-4.8,4.6l1,24.6c-0.6-0.2-1.2-0.5-1.8-0.7c-3.8-1.5-7.6-3.1-10.9-4.8     c-1.7-0.9-3.4-1.8-4.8-2.8c-0.7-0.5-2.2-1.2-2.1-2.2c0.2-1.7,3.2-2.3,4.4-2.8l4.9-1.9c2.3-0.9,5.4-3.1,5.2-5.8     c0-0.5-0.2-1.1-0.6-1.7c-0.5-0.9-1.4-1.5-2.3-1.8c-3.5-1.3-8.8-1.3-12,0.2c-2.3,1-3.7,3.3-5.8,5.9c-2.1,2.7-3.4,6.3-2.5,10.4     c1.5,4.5,4,5.7,5.9,7.3c2,1.4,4,2.4,6,3.4c3.9,1.9,7.8,3.4,11.6,4.9c0.6,0.2,1.1,0.4,1.7,0.6c-1.1,0.6-2.2,1.2-3.3,1.9     c-2.4,2-4.8,3.9-5.6,7c-0.1,0.3-0.2,0.7-0.2,1c-0.5,3.2,0.8,6.4,2.9,8.8c3.2,3.4,6.4,5.2,9.6,7c-0.5,0.3-0.9,0.6-1.4,0.9     c-3.5,2.6-7.6,4.7-10,10.4c-1.1,3.3-0.1,6.6,1.2,8.8c1.4,2.3,3.1,3.9,4.8,5.4c2.6,2.2,5.3,4,7.9,5.7l0.2,5c0,3.1,1.7,4.6,4.8,4.6     s4.8-1.5,4.8-4.6l0.2-5.1c2.6-1.7,5.1-3.5,7.7-5.6c1.7-1.5,3.4-3.1,4.8-5.4c1.4-2.2,2.4-5.5,1.2-8.8c-2.5-5.8-6.6-7.9-10-10.4     c-0.5-0.3-0.9-0.6-1.4-0.9c3.2-1.8,6.4-3.7,9.6-7c2.2-2.3,3.4-5.6,2.9-8.8c-0.1-0.4-0.1-0.7-0.2-1c-0.8-3-3.2-5-5.6-7     c-1.1-0.7-2.2-1.3-3.3-1.9c0.6-0.2,1.1-0.4,1.7-0.6c3.9-1.5,7.8-3.1,11.6-4.9c2-1,4-2,6-3.4C672.7,134.6,675.2,133.4,676.7,128.9     z M629.4,156.8c0-0.8,0.6-1.5,1.3-2c1.1-0.8,2.3-1.4,3.5-2.1l0.4,9.8C631.9,160.8,629.3,158.8,629.4,156.8z M631.9,191.9     c-1.9-1.8-4.7-4.6-3.8-7.6c0.9-2.9,4.5-4.8,7-6.2l0.7,16.8C634.2,193.8,632.5,192.5,631.9,191.9z M653.7,184.3     c0.9,3-1.9,5.8-3.8,7.6c-0.6,0.6-2.2,1.8-3.7,2.9l0.7-16.6C649.4,179.6,652.9,181.5,653.7,184.3z M652.4,156.8     c0,1.9-2.4,3.9-4.9,5.6l0.4-9.5c1.1,0.6,2.2,1.2,3.3,2C651.8,155.3,652.4,156,652.4,156.8z"></path>
			<path fill="#00AEEF" d="M563.4,58.7c-0.6,3.2,4,9,11.2,10.7c-1.1,1.8,2.8,6.4,9.2,8c-0.4,1,1.7,4.8,9.9,6.5     c-1.2,1.1,1.9,3.8,8.3,4.5c-1.7,1.1,2,3.7,8.7,3.9c-0.6,1.1,3.4,3.7,7.3,2.8c-1,1.2,3.2,3.4,6.7,1.4c0.3-0.2,0.6-0.4,1-0.7     c2-1.6,3.1-3.3,2.3-6.1c-1.6-5.1-6-8.7-6-14.6c0-3.9,2.7-8,1.7-12c-0.9-3.2-4.3-3.9-7.2-3.9c-7.6,0-27.2-2-36.2-4.2     s-26.9-8.8-26.9-8.8S552.9,54.1,563.4,58.7z"></path>
			<path fill="#00AEEF" d="M656.3,95.8c0.3,0.3,0.7,0.5,1,0.7c3.5,2,7.7-0.2,6.7-1.4c3.9,1,8-1.7,7.3-2.8c6.7-0.3,10.3-2.9,8.7-3.9     c6.4-0.7,9.5-3.4,8.3-4.5c8.2-1.7,10.2-5.5,9.9-6.5c6.4-1.6,10.2-6.2,9.2-8c7.4-1.6,11.9-7.4,11.2-10.7c10.4-4.5,10-12.5,10-12.5     s-17.7,6.6-26.9,8.8c-9.1,2.2-28.7,4.2-36.2,4.2c-3,0-6.4,0.7-7.2,3.9c-1.1,4,1.7,8.1,1.7,12c0,5.9-4.4,9.5-6,14.6     C653.2,92.5,654.3,94.2,656.3,95.8z"></path>
		</g>
		<path fill="#00AEEF" d="M258.6,154.4c-4.7-2.8-10.7-1.1-13.5,3.6c-11.9,20.7-29.5,33.6-45.7,33.6c-5.3,0-10-1.6-15.4-3.4    c-3.2-1.1-6.7-2.2-10.3-3l68.1-60.9c0.1-0.1,0.2-0.2,0.2-0.2c4-3.7,4.4-9.9,0.7-14c-3.6-4.1-9.9-4.4-13.9-0.8l-0.1,0.1    c-0.5,0.4-9,7.6-18,7.6c-5.4,0-11.2-1.7-17.5-3.4c-7.3-2.1-14.8-4.2-23.1-4.2c-16.4,0-26.6,8.1-33.9,17.9l-0.1,0.1    c-0.3,0.4-0.6,0.8-0.8,1.1c0,0,0,0.1-0.1,0.1c-0.9,1.5-1.4,3.3-1.4,5.2c0,5.5,4.5,10,10,10c3,0,5.7-1.3,7.5-3.4    c0.3-0.5,0.7-0.9,1-1.3c0,0,0,0,0-0.1c4.8-6.2,10-9.7,17.9-9.7c5.5,0,11.4,1.7,17.7,3.5c3.8,1.1,7.7,2.2,11.6,3l-67.9,60.5    c-0.1,0.1-0.2,0.2-0.2,0.2c-0.4,0.3-0.7,0.7-1,1.1l0,0c-3.1,3.7-3,9.2,0.3,12.9c1.9,2.2,4.7,3.3,7.4,3.3l0,0    c2.4,0,4.7-0.8,6.6-2.5l0,0c0.4-0.3,8.8-7.6,18.1-7.6c5.2,0,9.9,1.5,15.3,3.4c6.2,2.1,13.2,4.4,21.7,4.4    c23.6,0,47.1-16.3,62.8-43.5C265,163.2,263.3,157.1,258.6,154.4z"></path>
		<path fill="#00AEEF" d="M112.3,172.6c-2.3,0-4.5,0.8-6.2,2.1c-0.2,0.2-0.5,0.4-0.7,0.6l0,0c-14.8,12.3-34.2,21.3-53.7,15.8    c-5.2-1.5-11.1-4.4-13.2-10.3c15.6-0.7,32.3-6.8,43.2-12.4c19.3-10,26.2-24.6,26.2-34.9c0-0.3,0-0.7,0-0.9    c-0.7-14.1-11.5-23.6-27.2-23.6C48.9,109,18,147.4,18,176.1c0,16.5,10.6,29.3,28.5,34.2c5.2,1.4,10.7,2.2,16.6,2.2l0,0    c18,0,37.7-7.1,55.2-21.7c0.3-0.2,0.5-0.4,0.8-0.6c0.4-0.4,0.8-0.8,1.1-1.2c1.4-1.7,2.2-3.9,2.2-6.2    C122.4,177.1,117.9,172.6,112.3,172.6z M80.7,128.8c7.2,0,7.4,3.3,7.5,4.7c0,2.6-2.8,10.7-15.5,17.3c-7.7,4-19.6,8.5-30.9,9.9    C49.1,144.8,65.8,128.8,80.7,128.8z"></path>
	</g>
</g>
<text transform="matrix(0.995 0 0 1 786.1504 127)" fill="#2A3587" font-family="'MyriadPro-Regular'" font-size="72px">®</text>
</svg>