<svg xmlns="http://www.w3.org/2000/svg" width="79" height="56" data-name="&#x5716;&#x5C64; 1"><g><title>Layer 1</title><path class="cls-1" d="m13.9932,43.64998l-2,7.89994l-2.17,0l-1.26,-4.88995l-1.23,4.88995l-2.18,0l-2,-7.89994l2.06,0l1.09,5.32l1.32,-5.3l2,0l1.23,5.3l1.14,-5.3l2,-0.02z" fill="#1A333F" id="svg_1"></path><path class="cls-1" d="m20.62321,51.54992l-1.68,0l0,-2.92994l-2.23,0l0,2.92994l-1.66,0l0,-6.57994l1.66,0l0,2.4l2.23,0l0,-2.4l1.66,0l0.02,6.57994z" fill="#1A333F" id="svg_2"></path><path class="cls-1" d="m21.45321,51.54992l2.23,-6.57994l1.81,0l2.22,6.58994l-1.7,0l-0.41,-1.34997l-2.07,0l-0.42,1.34997l-1.66,-0.00999l0,-0.00001zm3.78,-2.57994l-0.67,-2.18l-0.62,2.18l1.29,0z" fill="#1A333F" id="svg_3"></path><path class="cls-1" d="m32.9432,51.54992l-4.4,0l0,-6.57994l1.65,0l0,5.32998l2.75,0l0,1.24997l0,-0.00001z" fill="#1A333F" id="svg_4"></path><path class="cls-1" d="m33.9432,51.54992l0,-6.57994l4.46,0l0,1.25l-2.83,0l0,1.15l2.59,0l0,1.25l-2.59,0l0,1.66997l2.81,0l0,1.25997l-4.44,0z" fill="#1A333F" id="svg_5"></path><path class="cls-1" d="m41.3332,51.54992l0,-6.38995l-2.33,0l0,-1.51l6.64,0l0,1.51l-2.33,0l0,6.38995l-1.98,0z" fill="#1A333F" id="svg_6"></path><path class="cls-1" d="m46.5432,51.54992l0,-6.57994l4.46,0l0,1.25l-2.81,0l0,1.15l2.59,0l0,1.25l-2.59,0l0,1.66997l2.81,0l0,1.25997l-4.46,0z" fill="#1A333F" id="svg_7"></path><path class="cls-1" d="m58.7032,48.23998a3.54,3.54 0 0 1 -0.86,2.50996a3.42,3.42 0 0 1 -4.68,0a4.12,4.12 0 0 1 0,-4.99996a3.42,3.42 0 0 1 4.68,0a3.55,3.55 0 0 1 0.86,2.49zm-1.71,0a3.65,3.65 0 0 0 -0.12,-1a2.05,2.05 0 0 0 -0.33,-0.68a1.26,1.26 0 0 0 -0.48,-0.39a1.5,1.5 0 0 0 -0.55,-0.11a1.27,1.27 0 0 0 -0.56,0.11a1.34,1.34 0 0 0 -0.47,0.38a1.85,1.85 0 0 0 -0.33,0.69a3.35,3.35 0 0 0 -0.13,1a3.63,3.63 0 0 0 0.12,0.99999a2.1,2.1 0 0 0 0.33,0.66998a1.26,1.26 0 0 0 0.48,0.39a1.32,1.32 0 0 0 1.12,0a1.28,1.28 0 0 0 0.48,-0.39a2.08,2.08 0 0 0 0.32,-0.66998a3.48,3.48 0 0 0 0.12,-1.00999l0,0.01z" fill="#1A333F" id="svg_8"></path><path class="cls-1" d="m60.4832,52.55989a2.57,2.57 0 0 1 -1.86,0.84998a2.38,2.38 0 0 1 -1.14,-0.31999c-0.57,-0.30999 -1.15,-0.79998 -1.72,-1.17998a2.24,2.24 0 0 0 -0.68,-0.25999l1.69,-0.28001a9.47,9.47 0 0 1 1.25,0.52999a4,4 0 0 0 1.68,0.49998a1.21,1.21 0 0 0 0.7,-0.18999a0.17,0.17 0 0 1 0.17,0s0.14,0.11 -0.05,0.32999l-0.04,0.02l0,0.00002z" fill="#1A333F" id="svg_9"></path><path class="cls-1" d="m75.17321,4.78985c-0.42001,-0.99999 -0.83,-1.30999 -1.13,-1.30999l0,0a0.31,0.31 0 0 0 -0.2,0.11a0.66,0.66 0 0 0 -0.2,0.47c-0.06001,0.99999 0.31001,2.48999 -0.82999,3.38999c-1.45,1.14 -4.25,1.34 -6.2,1.08c-2.28,-0.3 -3.06,-0.82 -5.34,-2.10999c-2.85,-1.57 -3.89,-3.26999 -4.72,-3.44999l-0.1,0a0.32,0.32 0 0 0 -0.14,0l0,0l0,0l0,0a0.41,0.41 0 0 0 -0.1,0.21a6.91,6.91 0 0 0 0.68,2.77999a31.07,31.07 0 0 0 6.05,9.45995c2.13,2.14 1.28,4.57002 0.73,6.41004c-1.8,6.00007 -4.27,7.55009 -7,7.19008c-2.91,-0.38 -4.51,-1.86002 -8.43,-4.21005a27.68,27.68 0 0 0 -13.87,-4.54005a25.9,25.9 0 0 0 -13.83,3.00003a8.48,8.48 0 0 0 -2.93,2.27003l0,0l0,0l0,0a0.29,0.29 0 0 0 0,0.09a0.24,0.24 0 0 0 0.24,0.24l0.06,0a33.21,33.21 0 0 1 7.91,-1.76002c0.66,0 1.32,-0.05 2,0a30.46,30.46 0 0 1 3.12,0.16l0.15,0l0.23,0a38.2,38.2 0 0 1 12.87,3.92004l0.94,0.49001l0.72,0.40001a44.5,44.5 0 0 0 6.57,3.00003c3.27,1.09002 6.42,1.59002 8.32,0.86001c2.59,-1.00001 4.57,-2.60003 5.07,-9.89011c0.34,-4.84005 1.48,-4.93006 3.72,-6.92006c2.08,-1.84999 3.85001,-2.40999 5.56001,-5.17997s0.95,-4.12998 0.08,-6.15998l-0.00002,0z" fill="#1A333F" id="svg_10"></path><path class="cls-1" d="m70.62321,34.23997a0.28,0.28 0 0 0 -0.46,-0.21l0,0c-0.32,0.29 -0.66,0.57 -0.66,0.57a11.94,11.94 0 0 1 -2.56001,1.64a13.47,13.47 0 0 1 -3.63,0.88a21.56,21.56 0 0 1 -7.45,-0.84a41.93,41.93 0 0 1 -10,-4.12002c-6.1,-3.44004 -13.08,-5.70007 -20.09,-5.34006c-7.63,0.38 -14.7,3.85004 -20.52,8.73008c0,0 -2.09,1.83 -2.42,3.1l0,0l0,0a0.23,0.23 0 0 0 0.23,0.24a0.29,0.29 0 0 0 0.18,-0.07a32.84,32.84 0 0 1 22.54,-7.46003c6.35,0.22001 12.23,2.68002 17.76,5.54003c4.09,2.12 13.59,5.59 20.55001,3a12.92,12.92 0 0 0 6.42999,-5.39a0.69,0.69 0 0 0 0.09,-0.26l0,0s0.01,0.01 0.01,-0.01l-0.00002,0z" fill="#1A333F" id="svg_11"></path></g></svg>